<?xml version="1.0" encoding="utf-8"?><!-- Uploaded to: SVG Repo, www.svgrepo.com, Generator: SVG Repo Mixer Tools -->
<svg fill="#000000" width="800px" height="800px" viewBox="0 0 24 24" id="switch-double" data-name="Flat Line" xmlns="http://www.w3.org/2000/svg" class="icon flat-line"><path id="secondary" d="M21,6.5a1.51,1.51,0,0,1,0,.3A3.49,3.49,0,0,1,15.06,9,3.5,3.5,0,0,1,17.5,3,3.49,3.49,0,0,1,21,6.2,1.51,1.51,0,0,1,21,6.5ZM3,17.8A3.49,3.49,0,0,0,8.94,20,3.5,3.5,0,0,0,6.5,14,3.49,3.49,0,0,0,3,17.2a2.26,2.26,0,0,0,0,.6Z" style="fill: rgb(44, 169, 188); stroke-width: 2;"></path><path id="primary" d="M14,6.5A3.44,3.44,0,0,0,15.06,9H5.5a2.5,2.5,0,1,1,0-5h9.56A3.44,3.44,0,0,0,14,6.5Zm7-.3A3.49,3.49,0,0,0,15.06,4a3.5,3.5,0,0,0,2.44,6A3.49,3.49,0,0,0,21,6.8a1.51,1.51,0,0,0,0-.3A1.51,1.51,0,0,0,21,6.2ZM8.94,20H18.5a2.5,2.5,0,0,0,0-5H8.94a3.48,3.48,0,0,1,0,5ZM3,17.8A3.49,3.49,0,0,0,8.94,20,3.5,3.5,0,0,0,6.5,14,3.49,3.49,0,0,0,3,17.2a2.26,2.26,0,0,0,0,.6Z" style="fill: none; stroke: rgb(0, 0, 0); stroke-linecap: round; stroke-linejoin: round; stroke-width: 2;"></path></svg>