<svg id="SvgjsSvg1001" width="288" height="288" xmlns="http://www.w3.org/2000/svg" version="1.1" xmlns:xlink="http://www.w3.org/1999/xlink" xmlns:svgjs="http://svgjs.com/svgjs"><defs id="SvgjsDefs1002"></defs><g id="SvgjsG1008"><svg xmlns="http://www.w3.org/2000/svg" viewBox="0 0 20 20" width="288" height="288"><path d="M7.29,12H6.87A5.73,5.73,0,0,0,1,17.54,2.38,2.38,0,0,0,1,18H8.26A7,7,0,0,1,7,14,7.27,7.27,0,0,1,7.29,12ZM8.46,9.73A7,7,0,0,1,14,7a5.12,5.12,0,0,1,.56,0A4.93,4.93,0,0,0,15,5,5,5,0,1,0,8.46,9.73Z" fill="#39b755" class="color000 svgShape"></path><path d="M14,8a6,6,0,1,0,6,6A6,6,0,0,0,14,8Zm0,10.8a4.8,4.8,0,1,1,3.67-7.86l-4,4.05-2-2.21-1,.94,3,3.29,4.81-4.85A4.72,4.72,0,0,1,18.8,14,4.8,4.8,0,0,1,14,18.8Z" class="secondary color000 svgShape" fill="#39b755"></path></svg></g></svg>