<svg xmlns="http://www.w3.org/2000/svg" width="24" height="24" fill="none" viewBox="0 0 24 24"><path fill="#5E94FF" fill-rule="evenodd" d="M1.75 12C1.75 11.5858 2.08579 11.25 2.5 11.25H14.5C14.9142 11.25 15.25 11.5858 15.25 12C15.25 12.4142 14.9142 12.75 14.5 12.75H2.5C2.08579 12.75 1.75 12.4142 1.75 12Z" clip-rule="evenodd"/><path fill="#5E94FF" fill-rule="evenodd" d="M10.4697 7.96967C10.7626 7.67678 11.2374 7.67678 11.5303 7.96967L15.0303 11.4697C15.3232 11.7626 15.3232 12.2374 15.0303 12.5303L11.5303 16.0303C11.2374 16.3232 10.7626 16.3232 10.4697 16.0303C10.1768 15.7374 10.1768 15.2626 10.4697 14.9697L13.4393 12L10.4697 9.03033C10.1768 8.73744 10.1768 8.26256 10.4697 7.96967Z" clip-rule="evenodd"/><path fill="#5E94FF" fill-rule="evenodd" d="M13.5 4.75C10.685 4.75 8.24337 6.3542 7.04181 8.70176C6.85309 9.07048 6.40119 9.2164 6.03247 9.02768C5.66374 8.83895 5.51783 8.38705 5.70655 8.01833C7.15461 5.18917 10.1002 3.25 13.5 3.25C18.3325 3.25 22.25 7.16751 22.25 12C22.25 16.8325 18.3325 20.75 13.5 20.75C10.1002 20.75 7.15461 18.8108 5.70655 15.9817C5.51783 15.6129 5.66374 15.161 6.03247 14.9723C6.40119 14.7836 6.85309 14.9295 7.04181 15.2982C8.24337 17.6458 10.685 19.25 13.5 19.25C17.5041 19.25 20.75 16.0041 20.75 12C20.75 7.99594 17.5041 4.75 13.5 4.75Z" clip-rule="evenodd"/><path fill="#5485E5" fill-rule="evenodd" d="M15.25 12H1.75C1.75 12.4142 2.08579 12.75 2.5 12.75H14.5C14.9142 12.75 15.25 12.4142 15.25 12Z" clip-rule="evenodd"/><path fill="#5485E5" fill-rule="evenodd" d="M15.25 12C15.25 12.1919 15.1768 12.3839 15.0303 12.5303L11.5303 16.0303C11.2374 16.3232 10.7626 16.3232 10.4697 16.0303C10.1768 15.7374 10.1768 15.2626 10.4697 14.9697L13.4393 12H15.25Z" clip-rule="evenodd"/><path fill="#5485E5" fill-rule="evenodd" d="M22.25 12H20.75C20.75 16.0041 17.5041 19.25 13.5 19.25C10.685 19.25 8.24337 17.6458 7.04181 15.2982C6.85309 14.9295 6.40119 14.7836 6.03247 14.9723C5.66374 15.161 5.51783 15.6129 5.70655 15.9817C7.15461 18.8108 10.1002 20.75 13.5 20.75C18.3325 20.75 22.25 16.8325 22.25 12Z" clip-rule="evenodd"/></svg>